# File produced by Open Asset Import Library (http://www.assimp.sf.net)
# (assimp v5.0.1588609223)

mtllib result.mtl

# 8 vertex positions
v  0.0048041334 0.052215375 0.18645737
v  -0.023218721 0.02514863 0.18645737
v  -0.023218721 0.052215375 0.18645737
v  0.0048041334 0.02514863 0.18645737
v  -0.023218721 0.052215375 0.2135241
v  0.0048041334 0.02514863 0.2135241
v  0.0048041334 0.052215375 0.2135241
v  -0.023218721 0.02514863 0.2135241

# 0 UV coordinates

# 6 vertex normals
vn 0 0 -0.001
vn 0 0 0.001
vn 0.001 0 0
vn -0.001 0 0
vn 0 0.001 0
vn 0 -0.001 0

# Mesh 'mesh_id27' with 12 faces
g mesh_id27
usemtl 50
f  1//1 2//1 3//1
f  1//1 4//1 2//1
f  5//2 6//2 7//2
f  5//2 8//2 6//2
f  7//3 4//3 1//3
f  7//3 6//3 4//3
f  3//4 8//4 5//4
f  3//4 2//4 8//4
f  3//5 7//5 1//5
f  3//5 5//5 7//5
f  8//6 4//6 6//6
f  8//6 2//6 4//6

